<?xml version="1.0" encoding="utf-8"?>
<!-- Generator: Adobe Illustrator 21.0.0, SVG Export Plug-In . SVG Version: 6.00 Build 0)  -->
<svg version="1.1" id="Calque_2" xmlns="http://www.w3.org/2000/svg" xmlns:xlink="http://www.w3.org/1999/xlink" x="0px" y="0px"
	 viewBox="0 0 379.8 47.3" style="enable-background:new 0 0 379.8 47.3;" xml:space="preserve">
<style type="text/css">
	.st0{fill:#E60028;}
	.st1{fill:#FFFFFF;}
	.st2{fill:none;}
</style>
<g>
	<g>
		<path d="M230.3,15c-1.2-0.5-2.4-0.8-3.5-0.8c-1.6,0-2.4,0.3-2.4,1c0,1.8,7.2,0.3,7.2,4.1c0,1.6-1.5,2.8-4.4,2.8
			c-1.8,0-3.1-0.4-4.7-1.2l0.6-1.4c1.4,0.8,2.7,1.1,4.1,1.1c1.8,0,2.7-0.5,2.7-1.3c0-1.9-7.2-0.5-7.2-4c0-1.5,1.5-2.6,4.1-2.6
			c1.6,0,2.9,0.3,4.2,1L230.3,15z"/>
		<path d="M238.3,22.2c-2.9,0-5.2-1.9-5.2-4.8c0-2.8,2.4-4.8,5.2-4.8c2.9,0,5.2,1.9,5.2,4.8C243.6,20.3,241.2,22.2,238.3,22.2z
			 M238.3,14.2c-2.1,0-3.5,1.4-3.5,3.2c0,1.9,1.4,3.2,3.5,3.2s3.5-1.4,3.5-3.2S240.5,14.2,238.3,14.2z"/>
		<path d="M250.5,22.1c-3,0-5.3-1.9-5.3-4.8c0-2.8,2.3-4.8,5.3-4.8c1.8,0,3,0.5,4.2,1.3l-0.9,1.3c-0.8-0.6-1.9-1.1-3.3-1.1
			c-2.2,0-3.6,1.4-3.6,3.2c0,1.9,1.4,3.2,3.6,3.2c1.4,0,2.5-0.4,3.3-1.1l0.9,1.3C253.6,21.7,252.2,22.1,250.5,22.1z"/>
		<path d="M256.6,21.9v-9h1.7v9H256.6z"/>
		<path d="M260.7,21.9v-9h8.2v1.5h-6.5v2.2h5.1v1.5h-5.1v2.4h6.8V22h-8.5V21.9z"/>
		<path d="M275.4,14.4v7.5h-1.7v-7.5H270v-1.5h9v1.5H275.4z"/>
		<path d="M280.5,21.9v-9h8.2v1.5h-6.5v2.2h5.1v1.5h-5.1v2.4h6.8V22h-8.5V21.9z"/>
		<path d="M299.3,20.6c0.9,0,1.9-0.2,2.6-0.5v-2.6h1.6V21c-1.1,0.8-2.7,1.2-4.3,1.2c-3,0-5.3-1.9-5.3-4.8c0-2.8,2.3-4.8,5.3-4.8
			c1.7,0,3,0.5,4.2,1.3l-0.9,1.3c-0.8-0.6-1.9-1.1-3.3-1.1c-2.2,0-3.6,1.4-3.6,3.2C295.8,19.2,297.1,20.6,299.3,20.6z"/>
		<path d="M305.9,21.9v-9h8.2v1.5h-6.5v2.2h5.1v1.5h-5.1v2.4h6.8V22h-8.5V21.9z"/>
		<path d="M317.9,21.9h-1.6v-9h1.7l5.9,6.8l0,0c-0.1-1.7-0.1-3.1-0.1-4.4v-2.4h1.6v9h-1.7l-5.8-6.8l0,0c0.1,1.3,0.1,3.7,0.1,4.4v2.4
			H317.9z"/>
		<path d="M327.8,21.9v-9h8.2v1.5h-6.5v2.2h5.1v1.5h-5.1v2.4h6.8V22h-8.5V21.9z"/>
		<path d="M342.5,18.6h-2.7v3.3h-1.7v-9h5.8c1.9,0,3.1,1.2,3.1,2.9c0,1.6-1.2,2.6-2.6,2.8l2.7,3.4H345L342.5,18.6z M343.8,17.1
			c1,0,1.6-0.5,1.6-1.3c0-0.9-0.5-1.4-1.5-1.4h-4.1v2.7L343.8,17.1L343.8,17.1z"/>
		<path d="M350.6,19.7l-1,2.2h-1.8l4.4-9h1.8l4.4,9h-1.8l-1-2.2H350.6z M351.3,18.3h3.5l-1.7-3.6L351.3,18.3z"/>
		<path d="M359.6,21.9v-9h1.7v7.5h6v1.5H359.6z"/>
		<path d="M368.4,21.9v-9h8.2v1.5h-6.5v2.2h5.1v1.5h-5.1v2.4h6.8V22h-8.5V21.9z"/>
	</g>
	<g>
		<path d="M227.1,33c0.9,0,1.9-0.2,2.6-0.5v-2.6h1.6v3.5c-1.1,0.8-2.7,1.2-4.3,1.2c-3,0-5.3-1.9-5.3-4.8c0-2.8,2.3-4.8,5.3-4.8
			c1.7,0,3,0.5,4.2,1.3l-0.9,1.3c-0.8-0.6-1.9-1.1-3.2-1.1c-2.2,0-3.6,1.4-3.6,3.2C223.5,31.7,224.9,33,227.1,33z"/>
		<path d="M241.2,34.4v-3.9h-5.9v3.9h-1.7v-9h1.7v3.7h5.9v-3.7h1.7v9H241.2z"/>
		<path d="M247.1,32.2l-1,2.2h-1.8l4.4-9h1.8l4.4,9h-1.8l-1-2.2H247.1z M247.8,30.7h3.5l-1.7-3.6L247.8,30.7z"/>
		<path d="M257.6,34.4H256v-9h1.7l5.9,6.8l0,0c-0.1-1.7-0.1-3.1-0.1-4.4v-2.4h1.6v9h-1.7l-5.8-6.8l0,0c0.1,1.3,0.1,3.7,0.1,4.4v2.4
			H257.6z"/>
		<path d="M269.2,32.2l-1,2.2h-1.8l4.4-9h1.8l4.4,9h-1.8l-1-2.2H269.2z M269.9,30.7h3.5l-1.7-3.6L269.9,30.7z"/>
	</g>
</g>
<rect x="185.7" y="9.5" class="st0" width="28.3" height="14.5"/>
<rect x="185.7" y="23.6" width="28.3" height="14.2"/>
<g>
	<g>
		<g>
			<g>
				<g>
					<g>
						<g>
							<rect x="190.6" y="22.8" class="st1" width="18.4" height="1.7"/>
						</g>
					</g>
				</g>
			</g>
		</g>
	</g>
</g>
<rect x="-11.4" y="-11.2" class="st2" width="402.5" height="69.7"/>
<g>
	<path d="M8.4,6.8H2.8V2.7h16.4v4.1h-5.6V21H8.4L8.4,6.8L8.4,6.8z"/>
	<path d="M39,2.6V21h-5.2v-7.2h-7.1V21h-5.2V2.7h5.2v6.9h7.1V2.7H39V2.6z"/>
	<path d="M56.7,17v4H42V2.7h14.4v4h-9.2v3.1h8.1v3.9h-8.1v3.4h9.5V17z"/>
	<path d="M71.1,6.6v4h8.1v4h-8.1v6.3h-5.2V2.6h14.4v4H71.1z"/>
	<path d="M83,12.8V2.6h5.2v10c0,3.1,1.3,4.4,3.5,4.4c2.1,0,3.5-1.3,3.5-4.4v-10h5.1v10.2c0,5.5-3.2,8.5-8.6,8.5
		C86.2,21.3,83,18.3,83,12.8z"/>
	<path d="M108,6.8h-5.6V2.7h16.4v4.1h-5.6V21H108L108,6.8L108,6.8z"/>
	<path d="M121.5,12.8V2.6h5.2v10c0,3.1,1.3,4.4,3.5,4.4c2.1,0,3.5-1.3,3.5-4.4v-10h5.1v10.2c0,5.5-3.2,8.5-8.6,8.5
		C124.7,21.3,121.5,18.3,121.5,12.8z"/>
	<path d="M149.6,16.1h-2.8V21h-5.2V2.7h8.4c5,0,8.1,2.6,8.1,6.8c0,2.7-1.3,4.7-3.6,5.8l4,5.8h-5.6L149.6,16.1z M149.7,6.7h-2.9v5.4
		h2.9c2.1,0,3.2-1,3.2-2.7C152.9,7.7,151.8,6.7,149.7,6.7z"/>
	<path d="M175.1,17v4h-14.7V2.7h14.4v4h-9.2v3.1h8.1v3.9h-8.1v3.4h9.5V17z"/>
	<path d="M86.1,25.7h5.2V44h-5.2V25.7z"/>
	<path d="M94.1,42.4l1.7-3.8c1.6,1.1,3.9,1.8,6.1,1.8c2.1,0,3-0.6,3-1.5c0-2.9-10.4-0.8-10.4-7.6c0-3.3,2.7-5.9,8.1-5.9
		c2.4,0,4.8,0.6,6.7,1.6l-1.6,3.9c-1.8-0.9-3.5-1.4-5.1-1.4c-2.2,0-3,0.7-3,1.7c0,2.8,10.4,0.7,10.4,7.5c0,3.2-2.7,5.9-8.1,5.9
		C98.8,44.4,95.8,43.6,94.1,42.4z"/>
	<path d="M128.5,37.4V44h-5.2v-6.7l-7-11.7h5.5l4.3,7.3l4.3-7.3h5L128.5,37.4z"/>
	<path d="M134.5,34.8c0-5.5,4.3-9.5,10.2-9.5s10.2,4,10.2,9.5s-4.3,9.5-10.2,9.5S134.5,40.3,134.5,34.8z M149.6,34.8
		c0-3.2-2.2-5.2-5-5.2s-5,2.1-5,5.2c0,3.2,2.2,5.2,5,5.2C147.5,40.1,149.6,38,149.6,34.8z"/>
	<path d="M157.8,35.8V25.6h5.2v10c0,3.1,1.3,4.4,3.5,4.4c2.1,0,3.5-1.3,3.5-4.4v-10h5.1v10.2c0,5.5-3.2,8.5-8.6,8.5
		C161,44.4,157.8,41.3,157.8,35.8z"/>
</g>
</svg>
